<?xml version="1.0" encoding="UTF-8"?><!--Created with Drawmetry (http://www.drawmetry.com/)--><svg xmlns="http://www.w3.org/2000/svg" width="1007.19" height="666.80" xmlns:xlink="http://www.w3.org/1999/xlink" xmlns:dm="http://www.drawmetry.com">
  <defs/>
  <g transform="translate(-1181.00, -161.00)">
    <path id="S_0" stroke="#00ff00" stroke-width="0.5" stroke-dasharray="5.0, 3.0" fill="#00ff00" fill-opacity="0.29" d="M 2014.6823 589.6630 C 1998.6129 491.4017 1945.0866 400.8637 1866.4641 339.6217 C 1795.1430 283.6019 1704.3231 253.1182 1613.6497 254.7204 C 1421.5882 257.7426 1256.4752 397.9505 1225.1393 590.7560 "/>
    <path id="S_1" stroke="#0000ff" stroke-width="0.5" stroke-dasharray="5.0, 3.0" fill="#000000" d="M 1562.7226 484.9021 C 1549.1092 496.0476 1533.5094 505.1863 1516.4116 509.6198 C 1500.3067 513.8355 1482.7168 513.0373 1467.5048 506.1306 C 1453.5266 499.8575 1441.8434 489.0810 1433.3286 476.4095 C 1422.5168 460.1998 1415.7957 440.3300 1418.4438 420.8364 C 1419.8223 410.8497 1424.3262 401.0965 1431.9806 394.4371 C 1440.4148 387.0005 1451.8489 383.8091 1462.9683 383.4656 C 1478.2365 382.9994 1493.3093 387.0026 1507.4149 392.6802 C 1523.3510 399.1498 1538.3159 407.9326 1552.0148 418.3199 C 1559.3500 423.9241 1566.3952 429.9824 1572.4467 436.9682 C 1577.6900 443.1156 1582.8784 450.5929 1581.8863 458.9405 C 1581.2682 464.0671 1578.4467 468.6271 1575.2512 472.5967 C 1571.5574 477.1537 1567.2262 481.1565 1562.7226 484.9021 Z "/>
    <path id="S_2" stroke="#0000ff" stroke-width="0.5" stroke-dasharray="5.0, 3.0" fill="#000000" d="M 1661.3178 499.7753 C 1672.3938 511.9514 1685.0138 523.2212 1700.0890 530.0701 C 1711.6048 535.3120 1724.5572 537.6242 1737.1279 535.9296 C 1750.5897 534.1787 1763.3520 527.5905 1772.5539 517.6064 C 1782.5367 506.8528 1788.6103 492.5946 1789.6486 477.9692 C 1790.7614 463.2719 1786.2127 447.9289 1776.1007 437.0818 C 1749.1389 408.4971 1700.5814 417.4514 1668.2350 435.1429 C 1661.9259 438.6200 1655.8234 442.5687 1650.5317 447.4758 C 1646.1235 451.5930 1642.0828 456.7400 1641.3908 462.8585 C 1640.6282 469.7129 1643.9055 476.2000 1647.4525 481.9143 C 1651.4771 488.3007 1656.2771 494.1655 1661.3178 499.7753 Z "/>
    <polyline id="L_0" stroke="#00ff00" stroke-width="0.5" stroke-dasharray="5.0, 3.0" fill="#00ff00" fill-opacity="0.29" points="1225.3820 589.2743 1620.0000 654.6700 2014.6180 589.2743"/>
    <polygon id="L_1" stroke="#00ff00" stroke-width="1.0" fill="none" points="1607.3691 792.8695 1620.0000 654.6700 1607.3691 516.4705"/>
    <line id="L_2" x1="1692.7860" y1="357.8796" x2="1692.7860" y2="654.6700" stroke="#cccccc" stroke-width="1.0"/>
    <line id="L_3" x1="1620.0000" y1="179.5551" x2="1620.0000" y2="815.8002" stroke="#cccccc" stroke-width="1.0"/>
    <line id="L_4" x1="1289.3691" y1="654.6700" x2="2176.1880" y2="654.6700" stroke="#cccccc" stroke-width="1.0"/>
    <line id="L_5" x1="1192.9962" y1="500.6700" x2="2169.7915" y2="500.6700" stroke="#000000" stroke-width="1.0"/>
    <polygon id="L_6" stroke="#000000" stroke-width="1.0" fill="none" points="1758.7755 489.6700 1481.2245 489.6700 1620.0000 212.5154"/>
    <line id="L_7" x1="1532.6377" y1="386.9904" x2="1783.0615" y2="341.4698" stroke="#cccccc" stroke-width="1.0"/>
    <polyline id="L_8" stroke="#000000" stroke-width="1.0" fill="none" points="1753.6296 179.5551 1812.0000 500.6700 1812.0000 814.7943"/>
    <polygon id="L_9" stroke="#00ff00" stroke-width="1.0" fill="none" points="2129.8468 654.6700 1859.4196 516.4705 1859.4196 792.8695"/>
    <polyline id="L_10" stroke="#cccccc" stroke-width="1.0" fill="none" points="1973.8089 574.9282 1612.7119 574.9282 1612.7119 734.4118"/>
    <line id="L_11" x1="1612.7119" y1="734.4118" x2="1973.8089" y2="734.4118" stroke="#cccccc" stroke-width="1.0"/>
    <line id="L_12" x1="1533.1153" y1="663.3659" x2="1533.1153" y2="386.9036" stroke="#cccccc" stroke-width="1.0"/>
    <line id="L_13" x1="1620.0000" y1="654.6700" x2="1620.0000" y2="515.8945" stroke="#cccccc" stroke-width="1.0"/>
    <line id="L_14" x1="1532.6377" y1="386.9904" x2="1532.6377" y2="654.6700" stroke="#cccccc" stroke-width="1.0"/>
    <path id="S_3" stroke="#666666" stroke-width="1.0" fill="none" d="M 1532.6377 654.6700 C 1532.6377 610.6298 1568.4881 574.9281 1612.7119 574.9281 C 1656.9356 574.9281 1692.7860 610.6298 1692.7860 654.6700 C 1692.7860 698.7101 1656.9356 734.4119 1612.7119 734.4119 C 1568.4881 734.4119 1532.6377 698.7101 1532.6377 654.6700 Z "/>
    <polyline id="L_15" stroke="#cccccc" stroke-width="1.0" fill="none" points="1431.3300 663.3659 1973.8089 663.3659 1973.8089 574.9282"/>
    <line id="L_16" x1="1692.3085" y1="663.3659" x2="1692.3085" y2="357.9664" stroke="#cccccc" stroke-width="1.0"/>
    <line id="L_17" x1="1607.3691" y1="516.4705" x2="1859.4196" y2="516.4705" stroke="#cccccc" stroke-width="1.0"/>
    <line id="L_18" x1="1620.0000" y1="212.5154" x2="1607.3691" y2="489.6700" stroke="#00ff00" stroke-width="1.0"/>
    <line id="L_19" x1="1607.3691" y1="792.8695" x2="1859.4196" y2="792.8695" stroke="#cccccc" stroke-width="1.0"/>
    <line id="L_20" x1="1620.0000" y1="212.5154" x2="2129.8468" y2="654.6700" stroke="#cccccc" stroke-width="1.0"/>
    <line id="L_21" x1="1612.7119" y1="574.9282" x2="1612.7119" y2="372.4350" stroke="#cccccc" stroke-width="1.0"/>
    <line id="L_22" x1="1607.3691" y1="489.6700" x2="1803.5193" y2="454.0149" stroke="#cccccc" stroke-width="1.0"/>
    <line id="L_23" x1="1973.8089" y1="500.6700" x2="1973.8089" y2="574.9282" stroke="#cccccc" stroke-width="1.0"/>
    <line id="L_24" x1="2129.8468" y1="500.6700" x2="2129.8468" y2="654.6700" stroke="#cccccc" stroke-width="1.0"/>
    <line id="L_25" x1="1755.1552" y1="187.9477" x2="1620.0000" y2="212.5154" stroke="#cccccc" stroke-width="1.0"/>
    <line id="L_26" x1="1973.8089" y1="663.3659" x2="1973.8089" y2="734.4118" stroke="#cccccc" stroke-width="1.0"/>
    <line id="L_27" x1="1859.4196" y1="500.6700" x2="1859.4196" y2="516.4705" stroke="#cccccc" stroke-width="1.0"/>
    <path id="S_4" stroke="#cccccc" stroke-width="1.0" fill="none" d="M 1753.9705 188.1654 C 1845.8129 171.0002 1942.0119 195.8017 2014.0635 255.3195 C 2086.9851 315.1666 2129.9785 406.2183 2129.8468 500.7017 "/>
    <line id="L_28" x1="1930.8883" y1="613.6158" x2="1930.8883" y2="633.6158" stroke="#000000" stroke-width="1.0"/>
    <path id="S_5" stroke="#cccccc" stroke-width="1.0" fill="none" d="M 1803.5193 454.0149 C 1831.9527 448.7446 1859.3587 470.9247 1859.4194 500.5281 "/>
    <path id="S_6" stroke="#cccccc" stroke-width="1.0" fill="none" d="M 1783.0614 341.4697 C 1880.5210 323.7894 1973.2535 397.5829 1973.8086 500.3455 "/>
    <path id="S_7" stroke="#00ff00" stroke-width="1.0" fill="none" d="M 1973.3744 663.8301 C 1951.6790 686.9092 1914.3190 688.2722 1891.0000 666.4080 C 1867.5210 644.6934 1866.1303 606.7942 1888.4162 583.3868 C 1910.6037 559.8267 1948.6723 559.2024 1971.6246 581.6300 C 1994.3531 603.5093 1995.3472 640.7160 1973.3744 663.8301 Z "/>
    <path id="S_8" stroke="#000000" stroke-width="1.0" fill="none" d="M 1481.2248 654.3675 C 1481.3168 578.4933 1543.3834 516.2903 1619.1603 515.8970 C 1693.3976 515.3566 1755.6011 574.6162 1758.6508 648.7873 C 1761.8516 725.1449 1702.5929 789.2870 1627.4182 793.2471 C 1548.7191 797.5569 1481.0579 734.2066 1481.2248 654.3675 Z "/>
    <line id="L_29" x1="1620.0000" y1="644.6700" x2="1620.0000" y2="664.6700" stroke="#000000" stroke-width="1.0"/>
    <line id="L_30" x1="1920.8883" y1="623.6158" x2="1940.8883" y2="623.6158" stroke="#000000" stroke-width="1.0"/>
    <path id="S_11" stroke="#ff0000" stroke-width="1.0" fill="none" d="M 1571.7660 375.8555 C 1567.0124 372.6151 1561.7683 369.8809 1556.1264 368.6118 C 1551.8640 367.6419 1547.0673 367.7659 1543.4256 370.3544 C 1540.4189 372.4495 1538.4005 375.6332 1536.7243 378.8417 C 1534.8692 382.4309 1533.3852 386.1965 1531.9029 389.9516 C 1527.7718 400.6057 1523.5811 411.2470 1518.6849 421.5759 C 1512.4172 434.8951 1505.2883 447.7887 1497.9033 460.5183 C 1493.5917 467.9669 1489.1613 475.3469 1484.9284 482.8408 C 1483.1278 486.0436 1481.3467 489.2621 1479.7997 492.5962 C 1478.9686 494.6584 1477.6065 496.7885 1478.0320 499.0874 C 1480.6032 505.9110 1531.5358 456.2374 1543.6772 444.3518 C 1553.8176 434.2827 1564.0017 424.1904 1572.9291 413.0144 C 1578.0011 406.3675 1584.1231 398.6607 1582.6959 389.9979 C 1581.4295 383.2368 1575.6843 378.3807 1570.0814 374.7227 Q 1567.1085 372.8463 1571.7660 375.8555 Z "/>
    <path id="S_12" stroke="#000000" stroke-width="0.5" stroke-dasharray="10.0, 3.0, 2.0, 3.0" fill="none" d="M 1854.4254 329.9867 C 1808.8767 383.6120 1763.3836 437.2852 1717.5696 490.6843 C 1700.8281 510.1408 1684.1192 529.6321 1666.8610 548.6339 C 1659.7912 556.3772 1652.6558 564.0786 1644.9788 571.2260 C 1637.7966 577.5757 1629.6725 585.4196 1619.5898 585.3052 C 1614.7762 585.1984 1610.2644 583.0074 1606.2875 580.3741 C 1601.8930 577.4525 1597.9199 573.9480 1594.0746 570.3423 C 1585.9257 562.6465 1578.3448 554.3762 1570.8178 546.0762 C 1553.5349 526.9191 1536.7381 507.3309 1519.9226 487.7636 C 1474.0855 434.3107 1428.5575 380.5939 1382.9746 326.9242 "/>
    <path id="S_13" stroke="#ff0000" stroke-width="1.0" fill="none" d="M 1678.5906 344.6263 C 1674.3514 345.4111 1670.5786 347.6603 1667.0313 350.0340 C 1663.0065 352.7675 1659.2571 355.8935 1655.7299 359.2419 C 1651.5393 363.2548 1647.5691 367.5791 1644.5568 372.5539 C 1641.8902 376.9259 1640.1757 382.2803 1641.6677 387.3050 C 1643.0150 392.0060 1646.2746 395.8769 1649.6456 399.3285 C 1653.6521 403.3699 1658.0919 406.9510 1662.6078 410.4049 C 1671.6348 417.2635 1681.0530 423.5905 1690.5800 429.7314 C 1700.6550 436.0688 1731.2759 456.0798 1737.3148 452.6819 C 1738.9446 451.3647 1738.0013 449.1208 1737.4449 447.4525 C 1736.4468 444.8037 1735.0641 442.3214 1733.6655 439.8656 C 1730.5976 434.5438 1727.2607 429.3838 1724.0055 424.1756 C 1717.7906 414.2719 1711.7527 404.2367 1706.5693 393.7504 C 1701.9854 384.5448 1698.1988 374.9640 1694.8654 365.2397 C 1693.4592 361.2153 1692.1470 357.1491 1690.4214 353.2476 C 1689.1745 350.4948 1687.7166 347.6660 1685.2091 345.8835 C 1683.3171 344.5263 1680.8510 344.2162 1678.5906 344.6263 Z "/>
    <path id="S_14" stroke="#000000" stroke-width="0.5" stroke-dasharray="10.0, 3.0, 2.0, 3.0" fill="none" d="M 1795.4285 623.6158 C 1678.8487 623.6158 1545.8698 623.6158 1441.7253 623.6158 "/>
    <path id="S_15" stroke="#ff0000" stroke-width="1.0" fill="none" d="M 1695.8151 672.2847 C 1688.3658 655.6770 1685.7926 637.1789 1677.1514 621.0452 C 1661.3854 588.9525 1632.3612 574.5306 1643.6876 568.0278 C 1671.9526 555.2628 1736.2946 584.0123 1738.1477 636.3796 C 1740.0646 668.5723 1708.6714 698.2208 1695.8151 672.2847 Z "/>
    <path id="S_16" stroke="#ff0000" stroke-width="1.0" fill="none" d="M 1527.4009 674.0631 C 1538.2903 657.5739 1541.2950 635.5074 1551.5603 617.5176 C 1562.4712 595.3157 1588.7678 575.6381 1581.7023 569.6492 C 1563.6083 555.6442 1488.0833 572.9241 1478.6859 628.0316 C 1471.9073 665.8214 1509.8427 697.6764 1527.4009 674.0631 Z "/>
    <dm:point id="P_0" x="1533.4456" y="663.3659" visible="false"/>
    <dm:point id="P_1" x="1533.1153" y="663.4021" visible="false"/>
    <dm:point id="P_2" x="1859.4196" y="500.6700" visible="true"/>
    <dm:point id="P_3" x="1973.8089" y="500.6700" visible="true"/>
    <dm:point id="P_4" x="2129.8468" y="500.6700" visible="true"/>
    <dm:point id="P_5" x="1481.2245" y="654.6700" visible="true"/>
    <dm:point id="P_6" x="1812.0000" y="500.6700" visible="true"/>
    <dm:point id="P_7" x="1192.9962" y="500.6700" visible="true"/>
    <dm:point id="P_8" x="2169.7915" y="500.6700" visible="true"/>
    <dm:point id="P_9" x="1812.0000" y="814.7943" visible="true"/>
    <dm:point id="P_10" x="1758.7755" y="489.6700" visible="true"/>
    <dm:point id="P_11" x="1481.2245" y="489.6700" visible="true"/>
    <dm:point id="P_12" x="1620.0000" y="212.5154" visible="true"/>
    <dm:point id="P_13" x="1620.0000" y="654.6700" visible="true"/>
    <dm:point id="P_14" x="1758.7755" y="654.6700" visible="true"/>
    <dm:point id="P_15" x="1620.0000" y="793.4455" visible="true"/>
    <dm:point id="P_16" x="1620.0000" y="515.8945" visible="true"/>
    <dm:point id="P_17" x="1620.0000" y="489.6700" visible="true"/>
    <dm:point id="P_18" x="1753.6296" y="179.5551" visible="true"/>
    <dm:point id="P_19" x="1532.6377" y="386.9904" visible="true"/>
    <dm:point id="P_20" x="1431.3300" y="663.3659" visible="true"/>
    <dm:point id="P_21" x="1973.8089" y="663.3659" visible="true"/>
    <dm:point id="P_22" x="2129.8468" y="654.6700" visible="true"/>
    <dm:point id="P_23" x="1859.4196" y="516.4705" visible="true"/>
    <dm:point id="P_24" x="1859.4196" y="792.8695" visible="true"/>
    <dm:point id="P_25" x="1692.7860" y="357.8796" visible="true"/>
    <dm:point id="P_26" x="1612.7119" y="654.6700" visible="true"/>
    <dm:point id="P_27" x="1973.8089" y="734.4118" visible="true"/>
    <dm:point id="P_28" x="1973.8089" y="574.9282" visible="true"/>
    <dm:point id="P_29" x="1612.7119" y="574.9282" visible="true"/>
    <dm:point id="P_30" x="1612.7119" y="734.4118" visible="true"/>
    <dm:point id="P_31" x="1930.8883" y="623.6158" visible="true"/>
    <dm:point id="P_32" x="1533.1153" y="386.9036" visible="true"/>
    <dm:point id="P_33" x="1532.6377" y="654.6700" visible="true"/>
    <dm:point id="P_34" x="1692.7860" y="654.6700" visible="true"/>
    <dm:point id="P_35" x="1691.9781" y="663.3659" visible="false"/>
    <dm:point id="P_36" x="1692.3085" y="663.4021" visible="false"/>
    <dm:point id="P_37" x="1620.0000" y="644.6700" visible="false"/>
    <dm:point id="P_38" x="1620.0000" y="664.6700" visible="false"/>
    <dm:point id="P_39" x="1692.3085" y="357.9664" visible="true"/>
    <dm:point id="P_40" x="1612.7119" y="372.4350" visible="true"/>
    <dm:point id="P_41" x="1747.1983" y="466.5486" visible="true"/>
    <dm:point id="P_42" x="1607.3691" y="516.4705" visible="true"/>
    <dm:point id="P_43" x="1607.3691" y="489.6700" visible="true"/>
    <dm:point id="P_44" x="1607.3691" y="792.8695" visible="true"/>
    <dm:point id="P_45" x="1289.3691" y="654.6700" visible="true"/>
    <dm:point id="P_46" x="2176.1880" y="654.6700" visible="true"/>
    <dm:point id="P_47" x="1620.0000" y="179.5551" visible="true"/>
    <dm:point id="P_48" x="1620.0000" y="815.8002" visible="true"/>
    <dm:point id="P_49" x="1755.1552" y="187.9477" visible="true"/>
    <dm:point id="P_50" x="1783.0615" y="341.4698" visible="true"/>
    <dm:point id="P_51" x="1803.5193" y="454.0149" visible="true"/>
    <dm:point id="P_52" x="1930.8883" y="613.6158" visible="false"/>
    <dm:point id="P_53" x="1930.8883" y="633.6158" visible="false"/>
    <dm:point id="P_54" x="1735.6211" y="443.4273" visible="true"/>
    <dm:point id="P_55" x="1608.4228" y="466.5486" visible="true"/>
    <dm:point id="P_56" x="1692.8295" y="357.9664" visible="true"/>
    <dm:point id="P_57" x="1532.6812" y="386.9036" visible="true"/>
    <dm:point id="P_58" x="1498.9196" y="454.3303" visible="true"/>
    <dm:point id="P_59" x="1920.8883" y="623.6158" visible="false"/>
    <dm:point id="P_60" x="1940.8883" y="623.6158" visible="false"/>
    <dm:point id="P_61" x="1225.3820" y="589.2743" visible="true"/>
    <dm:point id="P_62" x="2014.6180" y="589.2743" visible="true"/>
    <dm:point id="P_63" x="1231.1191" y="561.0128" visible="true"/>
    <dm:point id="P_64" x="1487.3548" y="511.6977" visible="true"/>
    <dm:point id="P_65" x="1731.6945" y="536.4140" visible="true"/>
    <dm:point id="P_66" x="1781.5188" y="623.6158" visible="true"/>
    <dm:point id="P_67" x="1832.9239" y="355.3074" visible="true"/>
    <dm:point id="P_68" x="1692.3085" y="663.3659" visible="true"/>
    <dm:point id="P_69" x="1533.1153" y="663.3659" visible="true"/>
  </g>
  <dm:constraint dm:target="P_7" dm:constraint-text="=horizontal(P_6)"/>
  <dm:constraint dm:target="P_8" dm:constraint-text="=horizontal(P_7)"/>
  <dm:constraint dm:target="L_5" dm:constraint-text="=vertices(P_7, P_8)"/>
  <dm:constraint dm:target="P_9" dm:constraint-text="=vertical(P_6)"/>
  <dm:constraint dm:target="L_8" dm:constraint-text="=vertices(P_18, P_6, P_9)"/>
  <dm:constraint dm:target="P_45" dm:constraint-text="=horizontal(P_13)"/>
  <dm:constraint dm:target="P_46" dm:constraint-text="=horizontal(P_13)"/>
  <dm:constraint dm:target="L_4" dm:constraint-text="=vertices(P_45, P_46)"/>
  <dm:constraint dm:target="P_14" dm:constraint-text="=horizontal(P_13) and colinear(P_45,P_46)"/>
  <dm:constraint dm:target="S_8" dm:constraint-text="=anchor(P_13, P_14)"/>
  <dm:constraint dm:target="P_10" dm:constraint-text="=vertical(P_14)"/>
  <dm:constraint dm:target="P_47" dm:constraint-text="=vertical(P_13)"/>
  <dm:constraint dm:target="P_48" dm:constraint-text="=vertical(P_13)"/>
  <dm:constraint dm:target="L_3" dm:constraint-text="=vertices(P_47, P_48)"/>
  <dm:constraint dm:target="P_12" dm:constraint-text="=vertical(P_13) and colinear(P_47,P_48)"/>
  <dm:constraint dm:target="P_49" dm:constraint-text="=project(P_12,P_6,P_18)"/>
  <dm:constraint dm:target="S_4" dm:constraint-text="=anchor(P_6, P_49)"/>
  <dm:constraint dm:target="L_25" dm:constraint-text="=vertices(P_49, P_12)"/>
  <dm:constraint dm:target="P_17" dm:constraint-text="=vertical(P_12) and horizontal(P_10)"/>
  <dm:constraint dm:target="P_41" dm:constraint-text="=perpendicular(P_17,P_18,P_6) and colinear(P_12,P_10)"/>
  <dm:constraint dm:target="P_66" dm:constraint-text="=horizontal(P_31)"/>
  <dm:constraint dm:target="P_4" dm:constraint-text="=horizontal(P_6) and hdistance(P_6,distance(P_6,P_49))"/>
  <dm:constraint dm:target="P_22" dm:constraint-text="=horizontal(P_13) and vertical(P_4)"/>
  <dm:constraint dm:target="L_20" dm:constraint-text="=vertices(P_12, P_22)"/>
  <dm:constraint dm:target="L_24" dm:constraint-text="=vertices(P_4, P_22)"/>
  <dm:constraint dm:target="P_5" dm:constraint-text="=weight(P_14,  -1.0, P_13, 2.0)"/>
  <dm:constraint dm:target="P_11" dm:constraint-text="=horizontal(P_10) and vertical(P_5)"/>
  <dm:constraint dm:target="L_6" dm:constraint-text="=vertices(P_10, P_11, P_12)"/>
  <dm:constraint dm:target="P_58" dm:constraint-text="=colinear(P_11,P_12)"/>
  <dm:constraint dm:target="P_54" dm:constraint-text="=perpendicular(P_11,P_18,P_6) and colinear(P_12,P_10)"/>
  <dm:constraint dm:target="P_55" dm:constraint-text="=center(P_11,P_54)"/>
  <dm:constraint dm:target="P_43" dm:constraint-text="=horizontal(P_10) and colinear(P_12,P_55)"/>
  <dm:constraint dm:target="P_51" dm:constraint-text="=project(P_43,P_18,P_6)"/>
  <dm:constraint dm:target="L_18" dm:constraint-text="=vertices(P_12, P_43)"/>
  <dm:constraint dm:target="S_5" dm:constraint-text="=anchor(P_6, P_51)"/>
  <dm:constraint dm:target="L_22" dm:constraint-text="=vertices(P_43, P_51)"/>
  <dm:constraint dm:target="P_2" dm:constraint-text="=horizontal(P_6) and hdistance(P_6,distance(P_6,P_51))"/>
  <dm:constraint dm:target="P_37" dm:constraint-text="=vertical(P_13) and vdistance(P_13,10.0)"/>
  <dm:constraint dm:target="P_42" dm:constraint-text="=vertical(P_43) and distance(P_13,hdistance(P_13,P_10))"/>
  <dm:constraint dm:target="P_23" dm:constraint-text="=vertical(P_2) and horizontal(P_42)"/>
  <dm:constraint dm:target="L_17" dm:constraint-text="=vertices(P_42, P_23)"/>
  <dm:constraint dm:target="L_27" dm:constraint-text="=vertices(P_2, P_23)"/>
  <dm:constraint dm:target="P_44" dm:constraint-text="=vertical(P_43) and distance(P_13,hdistance(P_13,P_10))"/>
  <dm:constraint dm:target="L_1" dm:constraint-text="=vertices(P_44, P_13, P_42)"/>
  <dm:constraint dm:target="P_24" dm:constraint-text="=horizontal(P_44) and vertical(P_2)"/>
  <dm:constraint dm:target="L_9" dm:constraint-text="=vertices(P_22, P_23, P_24)"/>
  <dm:constraint dm:target="L_19" dm:constraint-text="=vertices(P_44, P_24)"/>
  <dm:constraint dm:target="P_52" dm:constraint-text="=vertical(P_31) and vdistance(P_31,10.0)"/>
  <dm:constraint dm:target="P_60" dm:constraint-text="=horizontal(P_31) and hdistance(P_31,10.0)"/>
  <dm:constraint dm:target="P_63" dm:constraint-text="=distance(P_13,400.0)"/>
  <dm:constraint dm:target="P_15" dm:constraint-text="=rotate(P_14,P_13, -pi / 2.0)"/>
  <dm:constraint dm:target="P_16" dm:constraint-text="=weight(P_13, 2.0, P_15,  -1.0)"/>
  <dm:constraint dm:target="L_13" dm:constraint-text="=vertices(P_13, P_16)"/>
  <dm:constraint dm:target="P_21" dm:constraint-text="=distance(P_31,13.0 * 4.5)"/>
  <dm:constraint dm:target="S_7" dm:constraint-text="=anchor(P_31, P_21)"/>
  <dm:constraint dm:target="P_20" dm:constraint-text="=horizontal(P_21)"/>
  <dm:constraint dm:target="P_27" dm:constraint-text="=colinear(P_24,P_22) and vertical(P_21)"/>
  <dm:constraint dm:target="P_3" dm:constraint-text="=horizontal(P_6) and vertical(P_21)"/>
  <dm:constraint dm:target="P_50" dm:constraint-text="=colinear(P_6,P_49) and distance(P_6,hdistance(P_6,P_21))"/>
  <dm:constraint dm:target="L_26" dm:constraint-text="=vertices(P_21, P_27)"/>
  <dm:constraint dm:target="S_6" dm:constraint-text="=anchor(P_6, P_3)"/>
  <dm:constraint dm:target="P_19" dm:constraint-text="=colinear(P_11,P_12) and perpendicular(P_50,P_18,P_6)"/>
  <dm:constraint dm:target="L_7" dm:constraint-text="=vertices(P_19, P_50)"/>
  <dm:constraint dm:target="P_28" dm:constraint-text="=colinear(P_22,P_23) and hdistance(P_6,distance(P_6,P_50))"/>
  <dm:constraint dm:target="P_33" dm:constraint-text="=vertical(P_19) and colinear(P_14,P_5)"/>
  <dm:constraint dm:target="P_25" dm:constraint-text="=colinear(P_12,P_10) and colinear(P_19,P_50)"/>
  <dm:constraint dm:target="L_15" dm:constraint-text="=vertices(P_20, P_21, P_28)"/>
  <dm:constraint dm:target="L_23" dm:constraint-text="=vertices(P_3, P_28)"/>
  <dm:constraint dm:target="L_14" dm:constraint-text="=vertices(P_19, P_33)"/>
  <dm:constraint dm:target="P_40" dm:constraint-text="=center(P_19,P_25)"/>
  <dm:constraint dm:target="P_34" dm:constraint-text="=horizontal(P_13) and vertical(P_25)"/>
  <dm:constraint dm:target="L_2" dm:constraint-text="=vertices(P_25, P_34)"/>
  <dm:constraint dm:target="P_26" dm:constraint-text="=horizontal(P_13) and vertical(P_40)"/>
  <dm:constraint dm:target="P_30" dm:constraint-text="=vertical(P_26) and horizontal(P_27)"/>
  <dm:constraint dm:target="P_29" dm:constraint-text="=vertical(P_26) and horizontal(P_28)"/>
  <dm:constraint dm:target="L_11" dm:constraint-text="=vertices(P_30, P_27)"/>
  <dm:constraint dm:target="L_10" dm:constraint-text="=vertices(P_28, P_29, P_30)"/>
  <dm:constraint dm:target="L_21" dm:constraint-text="=vertices(P_29, P_40)"/>
  <dm:constraint dm:target="S_3" dm:constraint-text="=anchor(P_26, P_34, P_29)"/>
  <dm:constraint dm:target="P_35" dm:constraint-text="=horizontal(P_21) and distance(P_26,vdistance(P_26,P_29))"/>
  <dm:constraint dm:target="P_0" dm:constraint-text="=horizontal(P_21) and distance(P_26,vdistance(P_26,P_29))"/>
  <dm:constraint dm:target="P_36" dm:constraint-text="=colinear(P_26,P_35) and distance(P_26,hdistance(P_26,P_34))"/>
  <dm:constraint dm:target="P_1" dm:constraint-text="=colinear(P_0,P_26) and distance(P_26,hdistance(P_26,P_34))"/>
  <dm:constraint dm:target="P_68" dm:constraint-text="=horizontal(P_21) and vertical(P_36)"/>
  <dm:constraint dm:target="P_69" dm:constraint-text="=horizontal(P_0) and vertical(P_1)"/>
  <dm:constraint dm:target="P_39" dm:constraint-text="=vertical(P_68) and colinear(P_19,P_50)"/>
  <dm:constraint dm:target="P_32" dm:constraint-text="=vertical(P_69) and colinear(P_19,P_50)"/>
  <dm:constraint dm:target="L_16" dm:constraint-text="=vertices(P_68, P_39)"/>
  <dm:constraint dm:target="L_12" dm:constraint-text="=vertices(P_69, P_32)"/>
  <dm:constraint dm:target="P_56" dm:constraint-text="=colinear(P_12,P_10) and horizontal(P_39)"/>
  <dm:constraint dm:target="P_57" dm:constraint-text="=colinear(P_11,P_12) and horizontal(P_32)"/>
  <dm:constraint dm:target="P_38" dm:constraint-text="=vertical(P_13) and vdistance(P_13, -10.0)"/>
  <dm:constraint dm:target="L_29" dm:constraint-text="=vertices(P_37, P_38)"/>
  <dm:constraint dm:target="P_53" dm:constraint-text="=vertical(P_31) and vdistance(P_31, -10.0)"/>
  <dm:constraint dm:target="L_28" dm:constraint-text="=vertices(P_52, P_53)"/>
  <dm:constraint dm:target="P_59" dm:constraint-text="=horizontal(P_31) and hdistance(P_31, -10.0)"/>
  <dm:constraint dm:target="L_30" dm:constraint-text="=vertices(P_59, P_60)"/>
  <dm:constraint dm:target="P_61" dm:constraint-text="=angle(P_15,P_13,pi * hdistance(P_13,P_10) / distance(P_12,P_10)) and distance(P_13,400.0)"/>
  <dm:constraint dm:target="P_62" dm:constraint-text="=angle(P_15,P_13,pi * hdistance(P_10,P_13) / distance(P_12,P_10)) and distance(P_13,400.0)"/>
  <dm:constraint dm:target="L_0" dm:constraint-text="=vertices(P_61, P_13, P_62)"/>
  <dm:constraint dm:target="P_64" dm:constraint-text="=angle(P_69,P_13,angle(P_69,P_13,P_16) * (1.0 - hdistance(P_13,P_10) / distance(P_12,P_10))) and distance(P_13,distance(P_13,P_69) * distance(P_12,P_10) / hdistance(P_13,P_10))"/>
  <dm:constraint dm:target="P_65" dm:constraint-text="=angle(P_68,P_13,angle(P_68,P_13,P_16) * (1.0 - hdistance(P_13,P_10) / distance(P_12,P_10))) and distance(P_13,distance(P_13,P_68) * distance(P_12,P_10) / hdistance(P_13,P_10))"/>
  <dm:constraint dm:target="P_67" dm:constraint-text="=angle(P_66,P_13,angle(P_66,P_13,P_16) * (1.0 - hdistance(P_13,P_10) / distance(P_12,P_10))) and distance(P_13,distance(P_13,P_66) * distance(P_12,P_10) / hdistance(P_13,P_10))"/>
</svg>
