<?xml version="1.0" encoding="UTF-8" standalone="no"?>
<!-- Created with Drawmetry (http://www.drawmetry.com/) -->
<svg width = "1276.36" height = "652.96"
  xmlns:dm="http://www.drawmetry.com"
  xmlns="http://www.w3.org/2000/svg">
  <g transform = "translate(-0.00, -13.34)" >
    <path id = "S_0"  stroke="#000000" stroke-width="1.0" fill="#cccccc" fill-opacity="0.38" d = "
      M 207.5596 353.7231
      C 292.2736 326.6663 311.8326 217.1765 242.8025 162.2340
      C 173.5785 108.4209 72.6864 152.2578 65.1448 240.0027
      C 59.2412 316.1321 131.3025 377.0972 207.5596 353.7231" />
    <path id = "S_1"  stroke="#000000" stroke-width="1.0" fill="#cccccc" fill-opacity="0.38" d = "
      M 103.6163 333.3961
      C 145.0043 357.2821 133.3165 418.0019 87.7629 426.2792
      C 40.4188 434.0091 10.0032 377.8084 43.0642 342.4458
      C 58.5659 326.1552 83.8013 322.2494 103.6163 333.3961" />
    <text id = "C_0" x="23.13" y="37.00" text-anchor="middle" font-family="Arial" font-size="12" fill="#000000" transform = "matrix(1.0000, 0.0000, 0.0000, 1.0000, 73.8000, 3.7000)" >
      <dm:cell-dimension width = "72.25" height = "26.00" visible = "true"/>
        110.00
    </text>
    <text id = "C_1" x="22.38" y="37.00" text-anchor="middle" font-family="Arial" font-size="12" fill="#000000" transform = "matrix(1.0000, 0.0000, 0.0000, 1.0000, 74.8000, 33.7000)" >
      <dm:cell-dimension width = "72.75" height = "26.00" visible = "true"/>
        -50.00
    </text>
    <text id = "C_2" x="23.63" y="37.00" text-anchor="middle" font-family="Arial" font-size="12" fill="#000000" transform = "matrix(1.0000, 0.0000, 0.0000, 1.0000, 73.8000, 63.7000)" >
      <dm:cell-dimension width = "72.75" height = "26.00" visible = "true"/>
        40.00
    </text>
    <text id = "C_3" x="40.13" y="37.00" text-anchor="middle" font-family="Arial" font-size="12" fill="#000000" transform = "matrix(1.0000, 0.0000, 0.0000, 1.0000, 0.0500, 3.7000)" >
      <dm:cell-dimension width = "38.25" height = "26.00" visible = "true"/>
        R =
    </text>
    <text id = "C_4" x="39.13" y="37.00" text-anchor="middle" font-family="Arial" font-size="12" fill="#000000" transform = "matrix(1.0000, 0.0000, 0.0000, 1.0000, 1.0500, 33.7000)" >
      <dm:cell-dimension width = "39.25" height = "26.00" visible = "true"/>
        r =
    </text>
    <text id = "C_5" x="40.00" y="37.00" text-anchor="middle" font-family="Arial" font-size="12" fill="#000000" transform = "matrix(1.0000, 0.0000, 0.0000, 1.0000, 0.0500, 63.7000)" >
      <dm:cell-dimension width = "40.00" height = "26.00" visible = "true"/>
        d =
    </text>
    <path id = "S_3"  stroke="#0000ff" stroke-width="0.5" fill="none" d = "
      M 333.0924 388.4045
      C 263.6981 441.6441 241.3900 529.6388 307.9513 555.4489
      C 318.2581 560.6304 340.1829 558.7690 345.3657 561.0262
      C 349.0159 563.6504 342.9283 576.9102 343.9485 582.9343
      C 344.0074 610.6868 366.5361 630.4228 396.7515 637.5312
      C 460.0699 652.5697 547.4429 617.1506 594.2152 560.4879
      C 627.0413 521.5131 636.9073 472.9781 608.4139 446.6823
      C 603.3317 442.0229 597.0372 438.2678 589.7784 435.6322
      C 585.6960 433.7310 579.5051 433.7421 576.8720 430.5190
      C 575.2466 426.8815 583.8808 415.8725 585.8493 409.2641
      C 597.5153 378.1275 583.9841 350.2549 558.2383 335.5880
      C 524.9219 316.1961 471.3945 317.6216 422.3409 337.3787
      C 366.1159 359.6048 316.2015 406.0028 305.7823 451.5360
      C 295.1435 501.6447 329.5286 506.8384 328.9874 514.0635
      C 327.6143 518.9201 315.5508 529.5553 310.7789 537.5987
      C 296.2386 559.8888 293.8222 583.4406 300.7388 602.2353
      C 313.5252 637.4503 357.1175 655.8806 407.9562 651.5290
      C 455.6050 647.8016 509.1750 623.8565 544.6182 588.6647
      C 568.3959 565.2201 583.9593 536.5192 582.1602 511.9881
      C 582.5884 500.7723 570.9935 487.7480 573.6714 484.0366
      C 576.2298 480.3476 581.0350 477.9279 584.7831 474.9357
      C 591.3349 470.0255 597.3950 464.6594 602.6912 458.9452
      C 630.1267 429.3856 636.7420 393.8663 625.8309 367.9157
      C 600.7608 307.0477 494.3639 300.5765 412.9794 355.7251
      C 383.8805 375.4535 360.2832 402.7274 354.0154 429.2314
      C 350.4970 440.1693 355.3273 453.4001 351.8820 457.4627
      C 346.3204 462.5075 329.1966 468.3409 320.1897 475.3086
      C 292.6535 493.9771 274.0405 520.4004 267.0117 545.1541
      C 254.9126 587.1018 274.7383 623.8582 314.1224 639.5363
      C 354.8109 656.3023 416.6155 649.4656 466.9207 619.0948
      C 486.4158 607.3881 503.8496 592.3072 515.5008 575.6711
      C 520.7574 568.1812 524.7492 560.4061 527.2474 552.7175
      C 529.0976 548.1039 528.3537 543.0831 532.6273 538.7856
      C 538.6766 534.7846 554.6959 533.1156 565.9833 527.6876
      C 597.9458 514.1367 624.7531 489.3421 639.9949 463.7247
      C 688.0617 382.6344 624.3915 312.0645 522.5433 332.1643
      C 500.3646 336.5756 477.5466 345.3958 457.5424 358.1554
      C 416.5732 384.6657 415.6816 404.0794 407.7299 409.3659
      C 403.1587 412.0364 384.3869 410.0256 370.1477 414.2837
      C 336.8717 422.3685 304.6176 443.5407 282.6940 467.9639
      C 211.1431 547.6532 252.5220 639.6165 358.3661 629.8909
      C 387.1417 627.1300 418.9570 615.8075 443.5397 596.6339
      C 451.8103 590.7041 457.1680 582.7629 465.3825 576.8840
      C 471.1473 572.8713 488.0108 584.0972 518.2310 578.4110
      C 579.8224 567.9841 637.1580 518.9229 656.0865 470.4202
      C 674.7847 424.2754 659.9430 379.9115 616.9137 361.7567
      C 590.6177 350.4952 553.6011 349.8259 518.0208 364.0035
      C 503.4256 368.5972 481.1923 386.5608 477.5104 385.6004
      C 475.7873 385.5419 474.5546 384.7803 473.3470 384.0929
      C 411.9227 339.8605 273.4129 410.6195 250.9866 502.8562
      C 236.3284 560.6632 280.4980 610.9327 354.9602 597.9273
      C 372.2136 595.4106 390.0265 585.1651 396.5673 584.6080
      C 402.4638 585.1898 402.8660 592.7060 406.7469 595.5264
      C 411.5945 601.1598 418.0587 605.7030 425.6486 609.0194
      C 486.0726 634.2900 580.9357 590.8774 624.9434 532.0368
      C 655.2774 492.3966 662.6487 446.3432 640.0633 416.9619
      C 631.3523 405.5173 618.2842 396.6939 601.7382 392.2842
      C 571.4327 384.1124 547.7532 395.2927 541.3108 393.3628
      C 536.4941 391.3478 540.8560 372.0366 521.3571 356.7455
      C 509.5503 347.2754 492.9357 341.8395 474.3939 340.3347
      C 427.4309 336.3922 371.5549 358.0877 333.0924 388.4045" />
    <line id = "L_0" x1 = "107.3022" y1 = "405.4862" x2 = "79.2127" y2 = "377.0085" stroke="#000000" stroke-width="1.0"/>
    <path id = "S_4"  stroke="#0000ff" stroke-width="1.0" fill="none" d = "
      M 196.1275 128.8358
      C 265.2298 83.8945 345.6404 134.1002 367.7556 204.0072
      C 388.2869 266.4985 362.8467 339.4564 304.1220 371.3783
      C 278.8297 385.1572 247.8250 389.9909 220.2941 380.6610
      C 214.2819 378.6320 208.5222 375.8925 203.0669 372.6563
      C 199.6243 370.7885 196.5161 367.7821 192.5083 367.4365
      C 184.3106 366.8171 171.4577 405.8050 107.9695 405.5016" />
    <path id = "S_5"  stroke="#cc00cc" stroke-width="1.0" fill="none" d = "
      M 1046.6399 344.6900
      C 973.3865 302.4572 905.9976 249.5789 848.9929 187.0656
      C 828.8033 164.3798 808.9101 140.7253 795.8360 113.1326
      C 782.8061 82.5776 804.6004 94.3451 822.3705 113.6173
      C 886.0308 183.7227 934.6449 296.3737 961.0589 393.6008
      C 971.5369 422.3847 993.5737 556.7177 970.9506 556.0370
      C 940.2929 534.3960 951.4690 360.8352 966.6302 296.3149
      C 981.0990 225.4872 1000.5881 153.1192 1039.3037 91.7977
      C 1044.4692 84.8863 1053.9523 68.4566 1062.5597 69.7322
      C 1077.5940 77.0711 1037.4608 153.1959 1023.3300 174.1368
      C 990.6121 226.4213 951.2366 274.3801 907.6809 317.9974
      C 874.7260 350.8235 839.3667 381.4779 800.5238 407.1464
      C 788.5908 416.0693 725.7619 451.7388 729.6092 431.7634
      C 741.7004 402.0618 835.5993 357.6548 875.2662 342.7979
      C 1097.9699 256.0311 1266.3657 291.8840 1184.7969 310.2331
      C 1094.3617 324.0438 957.6521 290.6723 869.7094 255.2355
      C 832.6511 242.1578 719.3530 183.9917 730.1778 164.2816
      C 751.5343 150.4709 859.8157 234.3333 892.8174 267.7349
      C 955.5815 328.3350 1012.7045 396.9004 1050.6301 475.7687
      C 1060.9210 493.9170 1079.1220 558.0280 1045.9857 517.8149
      C 990.3117 442.0496 957.4764 292.3867 952.0896 188.2881
      C 950.4301 144.6803 948.6328 99.4027 962.1777 57.5545
      C 973.8383 26.1437 980.9609 57.5179 980.8541 74.5598
      C 983.1478 196.9800 898.0618 412.8083 815.1473 493.8465
      C 800.3081 508.2768 784.0878 513.5730 796.0796 486.5547
      C 840.1364 397.8247 975.8987 292.0368 1067.1859 244.2006
      C 1092.9363 228.7497 1199.6754 185.9684 1187.1551 211.9645
      C 1151.2355 252.8857 990.5892 282.6121 916.8727 285.3114
      C 861.8548 290.2248 718.1311 284.2124 696.0644 255.1813
      C 690.0803 236.1354 784.5119 254.7146 809.0547 263.2266
      C 858.7885 277.7787 906.8265 297.8151 952.8531 321.5747
      C 995.0638 343.4695 1035.7685 368.5026 1073.2491 397.8077
      C 1088.5414 408.5926 1157.1108 470.4000 1135.3351 474.5708
      C 1111.8136 473.2339 1059.9973 419.7497 1038.7158 394.8568
      C 885.3686 216.0536 852.9823 25.1205 884.6101 56.0781
      C 924.8128 107.7515 935.3076 269.0824 930.1602 345.0374
      C 929.5158 393.0951 907.7745 540.4602 878.7233 547.5551
      C 872.6710 546.6220 873.6973 535.0525 873.6814 529.7540
      C 877.4657 474.9272 913.5558 396.3152 941.5124 345.8404
      C 980.0086 274.5335 1071.7674 146.4174 1131.9678 126.0463
      C 1169.7222 119.7995 1062.6479 234.9568 898.1907 304.5894
      C 843.6879 327.7869 778.0424 351.1934 719.9914 353.4701
      C 713.0996 353.6300 692.1074 353.2334 696.1841 344.8154
      C 711.4371 322.7697 807.9737 314.3258 848.8803 313.6970
      C 915.4103 312.2629 982.1436 318.5034 1047.2046 332.4845
      C 1081.6732 338.8952 1191.2061 371.1559 1188.2017 393.0767
      C 1174.5600 410.7849 1063.5093 355.0226 1046.6399 344.6900" />
    <path id = "S_6"  stroke="#ff3333" stroke-width="1.0" fill="none" d = "
      M 1042.8458 347.1307
      C 970.3512 306.0365 903.8745 253.7809 848.3895 191.5363
      C 828.7125 168.8647 809.2977 145.1399 797.4086 117.3608
      C 785.9705 87.4527 806.8413 96.3645 825.0064 114.5137
      C 888.2196 178.9780 939.5030 295.0758 964.5831 390.7844
      C 974.9733 420.1424 995.3377 552.1683 970.3760 551.5625
      C 938.4206 534.1356 944.3753 357.7790 968.0417 268.1300
      C 977.8616 226.0830 990.6798 184.6018 1008.3045 145.1439
      C 1015.0256 126.6769 1056.9945 52.8393 1064.0587 78.9020
      C 1068.1873 116.3610 1013.2140 200.4601 982.1692 240.2912
      C 951.6037 279.9037 917.4420 316.7544 880.0838 350.0364
      C 852.7287 374.2468 823.7853 396.9210 792.1885 415.3494
      C 781.1338 422.5080 730.3445 447.8311 733.1981 429.0300
      C 751.0117 383.2188 897.2675 325.3944 965.1958 308.6054
      C 1005.6678 295.9596 1180.9730 265.9203 1201.0815 300.0304
      C 1194.7611 321.5859 1098.1508 315.9772 1068.4998 311.8597
      C 1030.5387 307.2266 992.9923 299.4135 956.1566 289.1640
      C 913.1734 277.1513 871.0664 261.8376 830.8334 242.4746
      C 799.2098 227.7569 729.0828 186.2057 733.2691 167.9500
      C 754.1261 138.0191 981.3011 302.5060 1055.2596 481.4285
      C 1099.6832 600.3547 970.6329 475.4437 949.4908 211.3027
      C 944.5198 172.9112 949.3522 42.1344 973.3663 49.0531
      C 994.5314 65.1355 975.2927 173.6507 962.6152 216.8429
      C 940.7905 295.9162 908.0905 372.5117 861.8583 440.4150
      C 807.8528 520.4080 761.6840 526.2442 821.8892 441.4737
      C 906.1034 322.9035 1119.3527 191.9461 1180.7612 205.9025
      C 1201.7171 216.6666 1126.9844 249.7964 1107.7103 255.0137
      C 1054.5128 272.9409 998.8733 282.9199 943.0250 287.9227
      C 889.2608 292.5015 834.8653 292.5425 781.4154 284.7228
      C 759.8994 282.3569 687.3494 265.0941 702.0170 250.7635
      C 732.2805 231.4711 862.6389 273.7224 911.5975 296.6878
      C 973.1616 324.2948 1032.0854 358.6522 1083.6731 402.2505
      C 1136.0504 445.5045 1161.4611 499.2686 1099.1481 456.5751
      C 950.1160 344.9561 846.2006 78.7485 879.5510 57.0698
      C 889.6716 56.1088 899.4298 80.0718 903.6959 90.2255
      C 929.3280 156.4403 936.6487 242.4019 935.7002 314.1220
      C 936.6632 371.5759 916.9196 526.3899 881.5219 543.1367
      C 851.1288 543.7625 910.8851 384.3629 917.5947 382.7687
      C 957.2302 298.0340 1044.7191 169.9500 1117.7717 132.2233
      C 1175.6431 107.1719 1093.8705 214.1332 950.9978 284.6808
      C 891.0195 314.9504 827.5185 340.2184 761.0245 351.1336
      C 726.3696 358.2070 665.4214 352.3920 724.5002 328.8788
      C 815.4765 297.6150 960.7060 308.6908 1046.1058 328.1091
      C 1080.6534 334.7997 1188.2368 367.7067 1183.9915 391.4562
      C 1170.0255 411.4948 1059.5858 357.2321 1042.8458 347.1307" />
    <path id = "S_7"  stroke="#ff33cc" stroke-width="1.0" fill="none" d = "
      M 1038.1590 350.1455
      C 864.2435 255.5898 766.6662 100.6621 804.9909 101.8671
      C 842.7506 110.4042 900.4321 208.5900 920.2973 252.4886
      C 956.3402 329.3688 988.5117 429.2118 984.2858 511.2391
      C 977.1335 592.1940 936.6670 523.9429 943.8745 397.8565
      C 948.0153 319.1174 964.3458 240.7225 994.2046 167.6781
      C 1002.2915 145.0728 1043.0637 65.3221 1060.2281 80.2248
      C 1079.3498 111.0857 998.7512 233.8940 960.5396 275.7039
      C 910.0413 335.7128 817.9620 419.5245 753.7308 433.0525
      C 747.3942 434.2492 736.2759 434.0390 737.6314 425.6534
      C 745.1164 393.4228 836.5059 347.6722 875.2055 332.7140
      C 926.0644 312.1445 979.2059 297.1733 1033.3547 288.3664
      C 1066.5637 282.1719 1185.5353 271.5938 1195.5088 300.0180
      C 1190.0175 324.0098 1094.6455 319.9695 1064.9731 316.1746
      C 1027.6486 312.0450 990.7274 304.5503 954.5539 294.5013
      C 888.7156 278.1638 744.9698 214.7144 737.5430 173.4613
      C 739.1721 150.0057 809.6030 189.8134 831.2018 205.5326
      C 876.3267 236.7379 916.6523 274.5612 952.8895 315.6695
      C 987.0604 354.7485 1017.8368 397.0968 1041.3002 443.4931
      C 1051.7001 462.4910 1076.1207 526.3370 1053.7246 521.5521
      C 1007.2163 501.3607 960.9938 347.8022 951.5817 276.6217
      C 940.6731 223.8569 936.0704 68.0397 969.8712 54.1615
      C 993.5401 53.6887 983.1110 151.7802 975.5677 183.7211
      C 955.3650 280.3067 915.2237 378.5897 854.1160 456.6165
      C 808.6998 514.6755 767.9654 516.2085 822.1788 435.9085
      C 887.8584 342.2973 1023.7121 240.6777 1130.8372 210.5144
      C 1190.3267 194.4139 1196.0783 217.9075 1139.7983 245.3712
      C 1060.0219 282.9142 967.4999 295.5666 879.3740 296.2732
      C 832.0833 297.2771 719.5135 286.0299 705.8364 257.6704
      C 701.0512 234.2879 791.3555 249.3054 817.2544 257.3570
      C 865.7277 270.2506 912.4463 289.2829 956.9485 312.3597
      C 1005.6111 334.3961 1141.5062 429.5345 1131.6257 465.7691
      C 1113.8709 485.2456 1029.0615 400.2434 1005.6868 369.0114
      C 951.1319 300.8003 899.8123 210.5610 878.9467 124.4405
      C 860.6166 43.9040 892.0078 41.6935 916.8739 119.6490
      C 939.1459 191.5292 944.0343 268.5831 940.1364 343.5664
      C 937.8016 396.9360 920.4369 509.4919 887.5144 536.0559
      C 881.0255 540.8472 875.7124 535.0025 874.6735 528.5444
      C 867.1192 490.2517 897.7982 411.9607 913.8976 378.5989
      C 950.8747 301.0362 1000.3230 226.9891 1063.8488 168.9470
      C 1080.3208 154.7718 1102.7138 134.9453 1123.5873 131.6548
      C 1163.9104 130.6591 1067.0967 240.8719 921.0583 305.3375
      C 866.7093 329.5731 809.4272 350.0496 749.8334 354.8921
      C 737.4243 355.7126 707.5389 356.5713 705.5462 345.1712
      C 704.8992 335.8525 722.8690 328.9371 729.1967 325.8792
      C 786.2514 303.9850 849.1171 302.7213 909.7372 304.5887
      C 1069.7263 310.1445 1205.9281 376.3073 1174.7511 393.1668
      C 1142.9151 404.6076 1054.1799 359.2748 1038.1590 350.1455" />
    <path id = "S_8"  stroke="#ffff33" stroke-width="1.0" fill="none" d = "
      M 1032.2224 353.9644
      C 972.8970 322.1364 918.5811 280.9089 871.9117 232.3846
      C 848.1538 209.4531 779.1441 120.6341 806.0503 107.4390
      C 847.9419 101.6892 922.3287 232.1252 940.8832 281.4119
      C 981.9180 369.7099 1006.5948 536.5840 968.7670 539.0338
      C 931.1244 525.9407 933.9063 371.7183 946.1716 312.9948
      C 955.9247 244.5975 1004.6387 92.2057 1051.9286 84.4788
      C 1079.0238 87.1782 1042.6153 168.4284 1028.9635 190.3275
      C 1003.0317 236.1677 970.3481 277.9747 933.7319 315.7587
      C 899.0375 351.3387 860.7519 383.8913 817.5961 408.7005
      C 801.8954 418.3636 743.5834 446.0999 743.2469 421.3763
      C 746.7659 392.2874 817.4960 351.8200 849.0085 337.3285
      C 1025.8452 251.9939 1225.6707 271.1655 1182.0244 309.5391
      C 1124.4150 342.8241 969.6704 311.5492 900.3774 284.4705
      C 851.3341 268.4748 727.8137 202.5723 744.9045 173.0568
      C 777.4499 147.0579 914.3152 252.6485 969.0275 323.7636
      C 997.7338 358.4317 1023.4389 395.8285 1042.7251 436.5795
      C 1053.0202 456.8325 1074.3980 518.8300 1049.9541 515.5847
      C 1000.7591 499.5802 953.6734 348.4005 944.7608 278.4388
      C 933.9680 225.8479 931.3115 73.3271 969.0039 61.1668
      C 1000.2756 61.7839 984.8389 183.8114 972.6905 224.4616
      C 950.7270 312.5162 894.9385 434.9125 829.4847 484.4490
      C 761.0326 530.9575 813.9656 384.6417 988.8452 271.8668
      C 1034.6683 242.8499 1083.8483 216.0529 1137.7577 206.9666
      C 1185.7758 200.4173 1178.6541 223.8241 1150.1733 242.0479
      C 1069.2283 293.4606 928.5209 309.6177 832.9267 300.5531
      C 799.0276 298.8638 696.6220 276.4486 714.5843 252.0368
      C 740.0120 227.9304 852.9145 258.7436 897.0376 277.1445
      C 973.6783 307.6948 1063.9195 360.0059 1113.1198 423.7450
      C 1120.3569 434.3984 1131.8732 447.5299 1126.5161 460.8989
      C 1116.3219 473.3859 1085.5124 452.5107 1072.6969 443.2095
      C 991.8866 382.7382 917.0476 265.7610 885.8839 166.3179
      C 879.4696 148.0947 861.6464 76.0836 883.0839 69.1973
      C 898.2567 66.6898 913.4952 101.0211 919.3671 116.1386
      C 961.4564 224.7744 960.5386 431.2462 901.7239 518.4164
      C 896.8400 525.5629 885.0032 537.2503 878.0185 527.3511
      C 859.5511 498.2148 895.3618 399.7452 909.2146 373.3172
      C 944.2431 297.7356 993.9125 224.0016 1056.8199 169.5963
      C 1073.4357 156.0182 1096.7486 136.9436 1117.7210 135.5807
      C 1160.6830 137.5373 1066.3996 253.4004 908.0843 318.5891
      C 857.8767 339.1088 804.8325 356.4556 750.2421 357.0204
      C 738.7774 356.8301 714.5244 355.6650 712.4745 343.8200
      C 711.5667 333.5257 727.9576 325.8924 735.1457 322.0796
      C 789.9809 297.9870 851.9709 296.1973 911.2827 297.7011
      C 1074.9146 302.9414 1203.6849 374.1218 1166.3401 392.1493
      C 1132.2288 404.4188 1048.7744 363.0777 1032.2224 353.9644" />
    <dm:point id = "P_0" x = "44.1008" y = "341.4113" visible = "true"/>
    <dm:point id = "P_1" x = "174.8000" y = "248.7000" visible = "true"/>
    <dm:point id = "P_2" x = "109.0837" y = "336.9121" visible = "true"/>
    <dm:point id = "P_3" x = "79.2127" y = "377.0085" visible = "true"/>
    <dm:point id = "P_4" x = "107.3022" y = "405.4862" visible = "true"/>
    <dm:point id = "P_5" x = "284.8000" y = "248.7000" visible = "true"/>
  </g>
  <dm:constraint dm:target = "P_2" dm:constraint-text = "= distance(P_1,C_0)" />
  <dm:constraint dm:target = "P_5" dm:constraint-text = "= horizontal(P_1) and hdistance(P_1,C_0)" />
  <dm:constraint dm:target = "S_0" dm:constraint-text = "= anchor(P_1, P_5)" />
  <dm:constraint dm:target = "C_1" dm:constraint-text = "=  -C_0 * 5.0 / 11.0" />
  <dm:constraint dm:target = "P_3" dm:constraint-text = "= weight(P_1, C_1, P_2, C_0 - C_1)" />
  <dm:constraint dm:target = "P_0" dm:constraint-text = "= rotate(P_2,P_3,angle(P_2,P_1,P_5) * C_0 / C_1)" />
  <dm:constraint dm:target = "S_1" dm:constraint-text = "= anchor(P_0, P_3)" />
  <dm:constraint dm:target = "P_4" dm:constraint-text = "= weight(P_0, C_2, P_3, C_1 - C_2)" />
  <dm:constraint dm:target = "L_0" dm:constraint-text = "= vertices(P_4, P_3)" />
</svg>
