<?xml version="1.0" encoding="UTF-8" standalone="no"?>
<!-- Created with Drawmetry (http://www.drawmetry.com/) -->
<svg width = "523.30" height = "516.83"
  xmlns:dm="http://www.drawmetry.com"
  xmlns="http://www.w3.org/2000/svg">
  <g transform = "translate(10.00, 10.00)" >
    <path id = "S_0"  stroke="#ccff00" stroke-width="1.0" fill="none" d = "
      M 222.9735 294.6239
      C 275.3670 262.5796 288.5257 170.2659 344.3134 140.3877
      C 423.9288 102.6789 503.3084 221.4741 416.3572 276.5026
      C 357.2669 317.3890 281.3467 256.2398 239.2246 205.2954
      C 197.9142 158.7439 159.8843 68.7306 89.4047 106.2518
      C 20.9786 145.5729 34.8367 277.5414 127.0331 252.1948
      C 197.6297 234.2217 227.0977 119.1054 313.6931 157.6824
      C 384.0084 187.7295 392.7199 303.9903 334.5942 350.6513
      C 253.0112 405.2503 181.4672 314.4007 211.3307 218.2633
      C 221.0914 183.2806 247.2701 151.8205 248.6327 116.5641
      C 248.2481 75.9431 205.1751 61.5731 166.3477 84.4594
      C 127.4828 108.5121 107.8512 166.7930 116.2341 211.4248
      C 136.7026 307.6416 221.7807 321.6307 272.5653 361.5799
      C 324.8695 406.3255 289.2691 466.3800 225.1094 449.3158
      C 133.1845 422.4571 122.5056 272.1561 218.0379 246.5696
      C 249.0561 237.1820 282.9137 243.3029 311.4458 258.0406" />
    <path id = "S_1"  stroke="#33ff00" stroke-width="1.0" fill="none" d = "
      M 257.8021 274.9524
      C 291.9836 225.0170 318.0463 79.5983 415.5594 128.5799
      C 461.2191 154.6933 482.2114 217.6404 452.7745 263.4719
      C 432.4179 293.8200 381.8658 307.8291 347.2896 298.4528
      C 210.6066 259.6867 171.7471 0.0036 62.7684 108.8237
      C 0.0050 180.5462 58.0394 310.4087 143.1117 260.6399
      C 203.6096 225.9289 211.6441 158.5737 264.5538 141.4450
      C 336.4054 119.4265 408.6112 210.3665 373.8201 305.3567
      C 324.4897 442.1058 185.7718 373.4678 194.6473 266.1446
      C 198.8713 204.7370 226.2824 181.7693 251.7061 127.8025
      C 268.6922 86.1857 247.2577 54.5994 205.4704 55.5354
      C 116.3789 61.4519 70.9141 201.2038 140.6533 280.3714
      C 188.8347 335.1729 248.4946 333.9043 290.5918 370.8815
      C 345.8076 419.3076 294.0423 485.6929 234.4273 467.4751
      C 126.7555 442.1820 100.3837 269.3407 214.0246 236.3268
      C 260.3537 223.0823 313.4216 244.4942 347.2434 275.8880" />
    <path id = "S_2"  stroke="#ffcc00" stroke-width="1.0" fill="none" d = "
      M 183.0393 296.9182
      C 255.3767 289.9833 279.3547 180.9902 340.9406 152.6386
      C 379.9989 133.9799 431.7807 158.7191 438.4039 201.8013
      C 442.4300 273.6060 373.4978 287.3080 317.9754 261.0249
      C 213.5610 215.2285 176.4042 58.7958 84.3443 127.4302
      C 33.0501 173.0034 60.3646 261.8470 140.5270 233.8729
      C 179.9264 217.8705 205.9792 179.2842 246.4160 165.2333
      C 304.8044 146.8743 354.0284 185.5834 362.4740 244.2583
      C 379.2877 361.1210 242.9233 394.8105 215.7512 281.4636
      C 199.4098 207.1014 263.1082 150.1623 232.4673 107.1118
      C 186.3974 53.9243 73.1998 154.5376 148.7480 266.4150
      C 182.0132 321.2697 328.8484 367.6327 268.7672 423.8506
      C 211.7611 464.1145 127.4327 367.5164 174.1271 292.2052
      C 194.4788 260.3871 235.3506 247.1847 271.7855 252.8387" />
    <path id = "S_3"  stroke="#ff9900" stroke-width="1.0" fill="none" d = "
      M 144.1088 287.7304
      C 232.1035 306.3280 272.7560 192.2082 332.9567 165.2912
      C 402.9319 133.4245 454.6742 215.1910 398.3409 247.8101
      C 262.9387 306.0931 201.6439 72.4423 101.0762 132.2400
      C 51.5965 165.6259 69.8248 231.3648 129.0422 221.5008
      C 185.8008 212.8411 262.1124 121.7869 330.8923 199.4481
      C 357.5353 231.3542 362.7125 281.7175 337.0222 315.3323
      C 289.9674 366.8020 219.4339 315.4666 221.8138 245.8664
      C 221.4332 212.3805 237.5653 180.5223 235.1580 147.0212
      C 231.3983 112.5303 197.1761 105.1165 171.2059 121.0892
      C 117.5374 155.4337 128.0228 237.3436 168.7149 280.0030
      C 198.5881 315.9785 303.2051 370.2682 252.9363 405.5122
      C 185.9479 435.5337 121.0279 298.8080 233.4238 264.1694" />
    <path id = "S_4"  stroke="#ff0000" stroke-width="1.0" fill="none" d = "
      M 105.9837 275.6278
      C 202.9539 306.1517 241.4679 236.4969 301.5163 190.0198
      C 352.5562 150.5715 407.1145 174.3142 399.7386 207.8346
      C 383.5652 256.1267 310.5774 242.5636 275.1249 217.4415
      C 224.2336 184.8922 171.8581 104.8698 109.1995 142.9294
      C 73.8229 167.9026 90.2961 207.2441 138.8758 202.0734
      C 182.7377 198.0369 222.6963 168.4249 267.4838 176.1139
      C 356.6666 190.3633 367.5707 314.7954 293.8584 318.3597
      C 258.6703 318.7464 235.1419 284.9163 231.5930 251.9354
      C 227.0931 221.8392 237.4339 191.1611 231.3314 161.3236
      C 214.9595 104.6002 138.4294 146.7184 146.1438 212.6957
      C 154.5997 281.0719 217.9329 308.5607 244.5568 350.2663
      C 258.0640 372.3615 241.0293 387.1812 218.9458 379.9485
      C 184.2501 366.1100 180.9935 320.4838 206.6582 293.8948" />
    <path id = "S_5"  stroke="#0099ff" stroke-width="1.0" fill="none" d = "
      M 281.1044 242.4408
      C 295.5875 192.5798 322.4781 106.2604 381.8370 104.2047
      C 453.3347 98.7425 502.9566 217.0802 461.4529 273.7525
      C 414.0797 335.4490 314.4198 324.4264 257.0987 243.2110
      C 192.6116 163.2071 151.6604 27.0814 71.2955 79.6340
      C 21.1747 113.4671 15.4736 203.3706 46.0704 251.8303
      C 68.0053 285.7435 119.4998 295.4589 151.9749 271.4063
      C 221.3181 223.0458 221.8231 94.2297 320.0270 130.6930
      C 371.1000 152.2392 398.1813 225.5389 389.6761 278.3604
      C 381.3452 322.5224 356.0245 364.6486 317.9236 388.9872
      C 260.7022 414.5722 182.5788 357.4425 183.7233 275.6863
      C 187.3891 166.1835 303.6115 117.0362 256.2711 56.9500
      C 220.6847 14.5407 157.7530 48.1327 129.4839 88.6967
      C 88.8108 149.0353 88.3458 232.0674 136.5673 287.9986
      C 190.2223 344.9439 252.2575 336.1381 298.6729 369.6380
      C 359.7078 415.4309 319.6629 496.8323 241.1767 484.5481
      C 108.0537 455.6524 87.6381 224.1070 238.6267 222.5635
      C 293.6323 221.9219 347.3976 258.6266 376.9829 302.6379" />
  </g>
</svg>
